<svg width="20" height="20" viewBox="0 0 20 20" fill="none" xmlns="http://www.w3.org/2000/svg">
    <path d="M18.51 4.71327C17.8741 4.9946 17.1997 5.17942 16.5092 5.26161C17.2367 4.82589 17.7811 4.14055 18.0408 3.33327C17.3575 3.73994 16.6083 4.02494 15.8283 4.17911C15.3039 3.61792 14.6086 3.24574 13.8508 3.12043C13.093 2.99511 12.315 3.12368 11.6377 3.48615C10.9605 3.84862 10.422 4.42468 10.1059 5.12477C9.78988 5.82486 9.71397 6.60976 9.89001 7.35744C8.50413 7.2881 7.14832 6.92804 5.91063 6.30066C4.67294 5.67327 3.58105 4.79258 2.70585 3.71577C2.39609 4.24781 2.23331 4.85263 2.23418 5.46827C2.23418 6.67661 2.85001 7.74411 3.78418 8.36911C3.23086 8.35165 2.68972 8.20223 2.20585 7.93327V7.97577C2.20582 8.78067 2.48421 9.56079 2.99379 10.1838C3.50337 10.8069 4.21277 11.2345 5.00168 11.3941C4.48805 11.5334 3.94942 11.554 3.42668 11.4541C3.64911 12.1469 4.08269 12.7528 4.66668 13.1869C5.25066 13.621 5.95581 13.8616 6.68335 13.8749C5.96031 14.4428 5.13242 14.8626 4.24702 15.1102C3.36162 15.3579 2.43609 15.4286 1.52335 15.3183C3.11645 16.3428 4.97093 16.8867 6.86501 16.8849C13.2767 16.8849 16.7817 11.5741 16.7817 6.96827C16.7817 6.81827 16.7783 6.66661 16.7717 6.51744C17.4537 6.0244 18.0423 5.41291 18.51 4.71327Z" fill="#0C0C17"/>
</svg>
