<svg width="24" height="24" viewBox="0 0 24 24" fill="none" xmlns="http://www.w3.org/2000/svg">
    <path d="M4.56801 12.1249C4.44052 12.5017 4.46795 12.9138 4.64427 13.2704C4.82059 13.627 5.13136 13.899 5.5082 14.0265C5.88504 14.1539 6.2971 14.1265 6.65371 13.9502C7.01033 13.7739 7.2823 13.4631 7.40979 13.0863C7.53728 12.7094 7.50984 12.2974 7.33352 11.9408C7.1572 11.5841 6.84644 11.3122 6.4696 11.1847C6.09275 11.0572 5.6807 11.0846 5.32408 11.2609C4.96747 11.4373 4.6955 11.748 4.56801 12.1249Z" fill="white" fill-opacity="0.2"/>
    <path d="M10.8925 12.1533C10.765 12.5301 10.7924 12.9421 10.9687 13.2988C11.1451 13.6554 11.4558 13.9274 11.8327 14.0548C12.2095 14.1823 12.6216 14.1549 12.9782 13.9786C13.3348 13.8023 13.6068 13.4915 13.7343 13.1146C13.8617 12.7378 13.8343 12.3258 13.658 11.9691C13.4817 11.6125 13.1709 11.3405 12.7941 11.2131C12.4172 11.0856 12.0052 11.113 11.6485 11.2893C11.2919 11.4656 11.02 11.7764 10.8925 12.1533Z" fill="white" fill-opacity="0.5"/>
    <path d="M17.217 12.1815C17.0895 12.5584 17.1169 12.9704 17.2933 13.327C17.4696 13.6836 17.7803 13.9556 18.1572 14.0831C18.534 14.2106 18.9461 14.1832 19.3027 14.0068C19.6593 13.8305 19.9313 13.5198 20.0588 13.1429C20.1863 12.7661 20.1588 12.354 19.9825 11.9974C19.8062 11.6408 19.4954 11.3688 19.1186 11.2413C18.7417 11.1138 18.3297 11.1413 17.9731 11.3176C17.6165 11.4939 17.3445 11.8047 17.217 12.1815Z" fill="white" fill-opacity="0.75"/>
</svg>
