<svg width="18" height="18" viewBox="0 0 18 18" fill="none" xmlns="http://www.w3.org/2000/svg">
    <path d="M17.7195 0.110491C17.9405 0.271205 18.0309 0.485491 17.9907 0.753348L15.4193 16.1819C15.3859 16.3761 15.2787 16.5268 15.0979 16.6339C15.0042 16.6875 14.9004 16.7143 14.7865 16.7143C14.7129 16.7143 14.6325 16.6975 14.5455 16.6641L9.99534 14.8058L7.56459 17.769C7.44405 17.923 7.27999 18 7.07241 18C6.98536 18 6.9117 17.9866 6.85143 17.9598C6.7242 17.9129 6.62208 17.8343 6.54508 17.7238C6.46807 17.6133 6.42956 17.4911 6.42956 17.3571V13.8516L15.108 3.21429L4.37045 12.5056L0.402894 10.8783C0.155131 10.7846 0.021205 10.6004 0.00111605 10.3259C-0.0122766 10.058 0.0948643 9.86049 0.322538 9.73326L17.0365 0.0904018C17.1369 0.0301339 17.2441 0 17.3579 0C17.4919 0 17.6124 0.0368304 17.7195 0.110491Z" fill="#E8392C"/>
</svg>
