<svg width="36" height="37" viewBox="0 0 36 37" fill="none" xmlns="http://www.w3.org/2000/svg">
    <path fill-rule="evenodd" clip-rule="evenodd" d="M18 10.0402C20.4669 10.0402 22.4668 12.0113 22.4668 14.4428C22.4668 16.7963 21.0549 16.7628 20.5525 19.5613C20.5245 19.56 20.4964 19.5593 20.4681 19.5593H18.525V15.5596L20.1779 14.6189C20.4282 14.476 20.5136 14.1602 20.3687 13.9135C20.2237 13.6668 19.9032 13.5826 19.653 13.7255L17.9989 14.6667L16.3449 13.7255C16.0946 13.5837 15.775 13.6688 15.6312 13.9155C15.4873 14.1621 15.5737 14.4771 15.8239 14.6189L17.475 15.5583V19.5592H15.5318C15.5035 19.5592 15.4754 19.56 15.4474 19.5612C14.945 16.7627 13.5331 16.7961 13.5331 14.4428C13.5331 12.0113 15.533 10.0402 18 10.0402ZM34.506 16.1859C33.8657 16.1859 33.3196 15.7888 33.107 15.2309H31.2179L31.2234 18.2131H30.1776L30.171 14.7135C30.171 14.4288 30.4052 14.198 30.694 14.198L33.1071 14.196C33.3197 13.6381 33.8658 13.241 34.5061 13.241C35.3312 13.241 36 13.9002 36 14.7135C36 15.5267 35.331 16.1859 34.506 16.1859ZM12.7057 4.18575C12.5007 4.38778 12.1683 4.38778 11.9632 4.18575C11.7583 3.98372 11.7583 3.6561 11.9632 3.454C13.5654 1.87496 15.7346 0.98938 18.0001 0.98938C20.2657 0.98938 22.4345 1.87526 24.0366 3.45437C24.2416 3.6564 24.2416 3.98409 24.0366 4.18612C23.8316 4.38815 23.4992 4.38815 23.2942 4.18612C21.881 2.79314 19.9986 2.02428 18.0001 2.02428C16.0018 2.02428 14.1188 2.79285 12.7057 4.18575ZM16.2798 7.70849C16.0748 7.91052 15.7424 7.91052 15.5374 7.70849C15.3324 7.50646 15.3324 7.17884 15.5374 6.97681C16.1676 6.35558 17.0384 5.97133 18.0001 5.97133C18.9207 5.97133 19.8118 6.33517 20.4629 6.97681C20.6678 7.17884 20.6678 7.50646 20.4629 7.70849C20.2579 7.91052 19.9255 7.91052 19.7205 7.70849C19.2584 7.25306 18.6536 7.00623 18.0001 7.00623C17.3283 7.00623 16.72 7.27457 16.2798 7.70849ZM22.2497 5.21556C21.1232 4.10518 19.5932 3.48039 18.0001 3.48039C16.407 3.48039 14.8769 4.1051 13.7503 5.21541C13.5454 5.41744 13.5454 5.74506 13.7503 5.94716C13.9553 6.14919 14.2877 6.14919 14.4928 5.94716C15.4304 5.02299 16.6742 4.5153 18.0001 4.5153C19.326 4.5153 20.5697 5.02314 21.5074 5.94723C21.7124 6.14926 22.0448 6.14926 22.2497 5.94723C22.4548 5.7452 22.4548 5.41758 22.2497 5.21556ZM1.49399 16.1859C2.13426 16.1859 2.68041 15.7888 2.89288 15.2309H4.78204L4.77657 18.2131H5.82244L5.82889 14.7135C5.82889 14.4288 5.59474 14.198 5.30592 14.198L2.89281 14.196C2.68033 13.6381 2.13419 13.241 1.49392 13.241C0.668846 13.241 0 13.9002 0 14.7135C0 15.5267 0.668921 16.1859 1.49399 16.1859ZM34.8176 22.1875C35.4708 22.1875 35.9999 21.6656 35.9999 21.0221V19.396C35.9999 19.3145 35.9324 19.248 35.8497 19.248H26.9451C26.8633 19.248 26.7964 19.313 26.7951 19.3936C26.7161 24.1147 22.8086 27.9179 18 27.9179C13.1912 27.9179 9.28382 24.1147 9.20492 19.3937C9.20357 19.3129 9.13674 19.248 9.05492 19.248C8.18882 19.248 7.50298e-05 19.0874 7.50298e-05 19.3961V21.0222C7.50298e-05 21.6656 0.529197 22.1875 1.18244 22.1875C4.72715 22.1875 6.50561 26.4201 3.99927 28.8904C3.53758 29.3454 3.53758 30.0835 3.99927 30.5386L6.54483 33.0476C7.00653 33.5026 7.7554 33.5026 8.21702 33.0476C10.7265 30.5742 15.0176 32.326 15.0176 35.824C15.0176 36.4679 15.5471 36.9894 16.2 36.9894H19.7998C20.4526 36.9894 20.9822 36.4679 20.9822 35.824C20.9822 32.3302 25.2765 30.5773 27.7828 33.0476C28.2445 33.5026 28.9934 33.5026 29.4551 33.0476L32.0006 30.5386C32.4623 30.0835 32.4623 29.3455 32.0006 28.8904C29.4943 26.4201 31.2729 22.1875 34.8176 22.1875ZM15.5318 20.5941H20.4681C20.8742 20.5941 21.2066 20.9217 21.2066 21.322V22.8928C21.2066 23.2931 20.8743 23.6206 20.4681 23.6206H19.7091V24.3504C19.7091 24.7281 19.3956 25.037 19.0125 25.037H16.9875C16.6043 25.037 16.2908 24.728 16.2908 24.3504V23.6206H15.5317C15.1256 23.6206 14.7933 23.2931 14.7933 22.8928V21.322C14.7934 20.9217 15.1257 20.5941 15.5318 20.5941Z" fill="#0C0C17"/>
</svg>
