<svg width="40" height="41" viewBox="0 0 40 41" fill="none" xmlns="http://www.w3.org/2000/svg">
<path fill-rule="evenodd" clip-rule="evenodd" d="M20 12.0402C22.4669 12.0402 24.4668 14.0113 24.4668 16.4428C24.4668 18.7963 23.0549 18.7628 22.5525 21.5613C22.5245 21.56 22.4964 21.5593 22.4681 21.5593H20.525V17.5596L22.1779 16.6189C22.4282 16.476 22.5136 16.1602 22.3687 15.9135C22.2237 15.6668 21.9032 15.5826 21.653 15.7255L19.9989 16.6667L18.3449 15.7255C18.0946 15.5837 17.775 15.6688 17.6312 15.9155C17.4873 16.1621 17.5737 16.4771 17.8239 16.6189L19.475 17.5583V21.5592H17.5318C17.5035 21.5592 17.4754 21.56 17.4474 21.5612C16.945 18.7627 15.5331 18.7961 15.5331 16.4428C15.5331 14.0113 17.533 12.0402 20 12.0402ZM36.506 18.1859C35.8657 18.1859 35.3196 17.7888 35.107 17.2309H33.2179L33.2234 20.2131H32.1776L32.171 16.7135C32.171 16.4288 32.4052 16.198 32.694 16.198L35.1071 16.196C35.3197 15.6381 35.8658 15.241 36.5061 15.241C37.3312 15.241 38 15.9002 38 16.7135C38 17.5267 37.331 18.1859 36.506 18.1859ZM14.7057 6.18575C14.5007 6.38778 14.1683 6.38778 13.9632 6.18575C13.7583 5.98372 13.7583 5.6561 13.9632 5.454C15.5654 3.87496 17.7346 2.98938 20.0001 2.98938C22.2657 2.98938 24.4345 3.87526 26.0366 5.45437C26.2416 5.6564 26.2416 5.98409 26.0366 6.18612C25.8316 6.38815 25.4992 6.38815 25.2942 6.18612C23.881 4.79314 21.9986 4.02428 20.0001 4.02428C18.0018 4.02428 16.1188 4.79285 14.7057 6.18575ZM18.2798 9.70849C18.0748 9.91052 17.7424 9.91052 17.5374 9.70849C17.3324 9.50646 17.3324 9.17884 17.5374 8.97681C18.1676 8.35558 19.0384 7.97133 20.0001 7.97133C20.9207 7.97133 21.8118 8.33517 22.4629 8.97681C22.6678 9.17884 22.6678 9.50646 22.4629 9.70849C22.2579 9.91052 21.9255 9.91052 21.7205 9.70849C21.2584 9.25306 20.6536 9.00623 20.0001 9.00623C19.3283 9.00623 18.72 9.27457 18.2798 9.70849ZM24.2497 7.21556C23.1232 6.10518 21.5932 5.48039 20.0001 5.48039C18.407 5.48039 16.8769 6.1051 15.7503 7.21541C15.5454 7.41744 15.5454 7.74506 15.7503 7.94716C15.9553 8.14919 16.2877 8.14919 16.4928 7.94716C17.4304 7.02299 18.6742 6.5153 20.0001 6.5153C21.326 6.5153 22.5697 7.02314 23.5074 7.94723C23.7124 8.14926 24.0448 8.14926 24.2497 7.94723C24.4548 7.7452 24.4548 7.41758 24.2497 7.21556ZM3.49399 18.1859C4.13426 18.1859 4.68041 17.7888 4.89288 17.2309H6.78204L6.77657 20.2131H7.82244L7.82889 16.7135C7.82889 16.4288 7.59474 16.198 7.30592 16.198L4.89281 16.196C4.68033 15.6381 4.13419 15.241 3.49392 15.241C2.66885 15.241 2 15.9002 2 16.7135C2 17.5267 2.66892 18.1859 3.49399 18.1859ZM36.8176 24.1875C37.4708 24.1875 37.9999 23.6656 37.9999 23.0221V21.396C37.9999 21.3145 37.9324 21.248 37.8497 21.248H28.9451C28.8633 21.248 28.7964 21.313 28.7951 21.3936C28.7161 26.1147 24.8086 29.9179 20 29.9179C15.1912 29.9179 11.2838 26.1147 11.2049 21.3937C11.2036 21.3129 11.1367 21.248 11.0549 21.248C10.1888 21.248 2.00008 21.0874 2.00008 21.3961V23.0222C2.00008 23.6656 2.5292 24.1875 3.18244 24.1875C6.72715 24.1875 8.50561 28.4201 5.99927 30.8904C5.53758 31.3454 5.53758 32.0835 5.99927 32.5386L8.54483 35.0476C9.00653 35.5026 9.7554 35.5026 10.217 35.0476C12.7265 32.5742 17.0176 34.326 17.0176 37.824C17.0176 38.4679 17.5471 38.9894 18.2 38.9894H21.7998C22.4526 38.9894 22.9822 38.4679 22.9822 37.824C22.9822 34.3302 27.2765 32.5773 29.7828 35.0476C30.2445 35.5026 30.9934 35.5026 31.4551 35.0476L34.0006 32.5386C34.4623 32.0835 34.4623 31.3455 34.0006 30.8904C31.4943 28.4201 33.2729 24.1875 36.8176 24.1875ZM17.5318 22.5941H22.4681C22.8742 22.5941 23.2066 22.9217 23.2066 23.322V24.8928C23.2066 25.2931 22.8743 25.6206 22.4681 25.6206H21.7091V26.3504C21.7091 26.7281 21.3956 27.037 21.0125 27.037H18.9875C18.6043 27.037 18.2908 26.728 18.2908 26.3504V25.6206H17.5317C17.1256 25.6206 16.7933 25.2931 16.7933 24.8928V23.322C16.7934 22.9217 17.1257 22.5941 17.5318 22.5941Z" fill="#0C0C17"/>
</svg>
