<svg width="40" height="40" viewBox="0 0 40 40" fill="none" xmlns="http://www.w3.org/2000/svg">
    <path d="M21.7844 3.75L22.4094 2.5H14.4344L15.0594 3.75H21.7844Z" fill="#0C0C17"/>
    <path d="M30.2968 11.875H26.3656C26.0287 11.876 25.6982 11.9669 25.4081 12.1383C25.1181 12.3097 24.879 12.5554 24.7156 12.85C24.57 13.1278 24.4928 13.4364 24.4906 13.75V17.6813C24.4921 18.1781 24.6901 18.6541 25.0414 19.0055C25.3927 19.3568 25.8688 19.5548 26.3656 19.5563H30.2968C30.794 19.5557 31.2706 19.358 31.6221 19.0065C31.9736 18.655 32.1713 18.1784 32.1718 17.6813V13.75C32.1704 13.2532 31.9724 12.7771 31.6211 12.4258C31.2698 12.0745 30.7937 11.8764 30.2968 11.875Z" fill="#0C0C17"/>
    <path d="M31.1969 20.6688C30.9189 20.5235 30.6104 20.4464 30.2968 20.4437H26.3656C25.8692 20.4467 25.3941 20.6452 25.0431 20.9962C24.6921 21.3472 24.4936 21.8224 24.4906 22.3187V26.25C24.4927 26.6727 24.6368 27.0825 24.8997 27.4135C25.1627 27.7444 25.5293 27.9774 25.9406 28.075C25.945 28.1674 30.1192 28.1111 30.2968 28.1251C30.7937 28.1236 31.2698 27.9256 31.6211 27.5743C31.9724 27.223 32.1704 26.7469 32.1718 26.2501V22.3188C32.1708 21.9819 32.08 21.6513 31.9086 21.3613C31.7372 21.0712 31.4915 20.8322 31.1969 20.6688Z" fill="#0C0C17"/>
    <path d="M24.0469 28.3375C23.7563 28.6653 23.3992 28.9274 22.9993 29.1063C22.5995 29.2852 22.1661 29.3768 21.7281 29.375H17.7969C16.9682 29.3747 16.1735 29.0454 15.5875 28.4594C15.0015 27.8734 14.6722 27.0788 14.6719 26.25V22.3188C14.6701 21.8808 14.7618 21.4474 14.9407 21.0476C15.1196 20.6477 15.3816 20.2906 15.7094 20C15.3816 19.7094 15.1196 19.3523 14.9407 18.9525C14.7618 18.5527 14.6701 18.1193 14.6719 17.6813V13.75C14.6722 12.9213 15.0015 12.1267 15.5875 11.5407C16.1735 10.9547 16.9682 10.6253 17.7969 10.625H21.7281C22.1661 10.6233 22.5995 10.7149 22.9993 10.8938C23.3992 11.0727 23.7563 11.3348 24.0469 11.6625C24.3375 11.3348 24.6946 11.0727 25.0944 10.8938C25.4942 10.7149 25.9276 10.6233 26.3656 10.625H29.0156V5.00004C29.0157 4.67171 28.9511 4.34658 28.8255 4.04323C28.6999 3.73987 28.5158 3.46424 28.2836 3.23208C28.0514 2.99991 27.7758 2.81577 27.4724 2.69016C27.1691 2.56456 26.844 2.49995 26.5156 2.50004H23.8094L23.1844 3.75004L22.7281 4.65629C22.6769 4.75991 22.5976 4.84706 22.4992 4.90783C22.4009 4.9686 22.2875 5.00055 22.1719 5.00004H14.6719C14.5563 5.00055 14.4429 4.9686 14.3445 4.90783C14.2462 4.84706 14.1669 4.75991 14.1156 4.65629C13.8544 4.12758 13.3067 3.03129 13.0406 2.5L10.3281 2.50004C9.9998 2.49995 9.67467 2.56456 9.37131 2.69016C9.06796 2.81577 8.79232 2.99991 8.56016 3.23208C8.32799 3.46424 8.14385 3.73987 8.01824 4.04323C7.89264 4.34658 7.82804 4.67171 7.82813 5.00004V35C7.82804 35.3284 7.89265 35.6535 8.01826 35.9568C8.14387 36.2602 8.32801 36.5358 8.56018 36.768C8.79234 37.0002 9.06797 37.1843 9.37132 37.3099C9.67467 37.4355 9.9998 37.5001 10.3281 37.5H26.5156C26.844 37.5001 27.1691 37.4355 27.4724 37.3099C27.7758 37.1843 28.0514 37.0002 28.2836 36.768C28.5157 36.5358 28.6999 36.2602 28.8255 35.9568C28.9511 35.6535 29.0157 35.3284 29.0156 35V29.375H26.3656C25.9276 29.3768 25.4942 29.2852 25.0944 29.1063C24.6946 28.9274 24.3375 28.6653 24.0469 28.3375ZM20.9219 35H15.9219C15.7577 34.9976 15.6011 34.9307 15.4859 34.8137C15.3707 34.6968 15.3061 34.5392 15.3061 34.375C15.3061 34.2108 15.3707 34.0533 15.4859 33.9363C15.6012 33.8194 15.7578 33.7525 15.9219 33.75H20.9219C21.086 33.7525 21.2426 33.8194 21.3579 33.9363C21.4731 34.0533 21.5377 34.2109 21.5377 34.375C21.5377 34.5392 21.4731 34.6968 21.3579 34.8137C21.2426 34.9307 21.086 34.9976 20.9219 35Z" fill="#0C0C17"/>
    <path d="M17.4031 19.5125C17.4602 19.5959 21.5419 19.5423 21.7281 19.5563C22.0656 19.5545 22.3965 19.4625 22.6866 19.29C22.9766 19.1175 23.2154 18.8706 23.3781 18.575C23.5231 18.2992 23.6003 17.9928 23.6031 17.6813V13.75C23.5992 13.2539 23.4004 12.7793 23.0496 12.4285C22.6988 12.0778 22.2242 11.8789 21.7281 11.875H17.7969C17.3 11.8764 16.824 12.0745 16.4727 12.4258C16.1213 12.7771 15.9233 13.2532 15.9219 13.75V17.6813C15.9242 18.1093 16.0721 18.5239 16.3413 18.8567C16.6105 19.1895 16.985 19.4208 17.4031 19.5125Z" fill="#0C0C17"/>
    <path d="M15.9219 26.25C15.9233 26.7468 16.1213 27.2229 16.4727 27.5742C16.824 27.9255 17.3 28.1235 17.7969 28.125H21.7281C22.0968 28.1236 22.4568 28.0138 22.7635 27.8093C23.0703 27.6049 23.3101 27.3147 23.4531 26.975C23.7431 26.5709 23.5515 22.8422 23.6032 22.3187C23.6 21.8224 23.4014 21.3473 23.0505 20.9964C22.6995 20.6454 22.2244 20.4469 21.7281 20.4437H17.7969C17.3008 20.4477 16.8262 20.6465 16.4754 20.9973C16.1247 21.3481 15.9258 21.8227 15.9219 22.3187L15.9219 26.25Z" fill="#0C0C17"/>
</svg>
