<svg width="40" height="41" viewBox="0 0 40 41" fill="none" xmlns="http://www.w3.org/2000/svg">
    <path d="M37.8404 9.3081L31.6847 3.14896C31.6341 3.09837 31.5741 3.05824 31.508 3.03085C31.4419 3.00347 31.3711 2.98938 31.2996 2.98938C31.2281 2.98938 31.1573 3.00347 31.0912 3.03085C31.0251 3.05824 30.9651 3.09837 30.9145 3.14896L29.3712 4.68856C29.1335 4.92708 29 5.2501 29 5.58685C29 5.9236 29.1335 6.24662 29.3712 6.48513L34.5041 11.6179C34.7426 11.8558 35.0656 11.9894 35.4024 11.9894C35.7393 11.9894 36.0623 11.8558 36.3008 11.6179L37.8404 10.0783C37.891 10.0277 37.9311 9.96768 37.9585 9.9016C37.9859 9.83553 38 9.76471 38 9.69319C38 9.62166 37.9859 9.55084 37.9585 9.48477C37.9311 9.41869 37.891 9.35866 37.8404 9.3081Z" fill="#0C0C17"/>
    <path d="M28.8536 12.8432C28.9235 12.7732 28.9711 12.6841 28.9904 12.5871C29.0097 12.4901 28.9998 12.3895 28.9619 12.2981C28.9241 12.2067 28.86 12.1286 28.7778 12.0737C28.6955 12.0187 28.5989 11.9894 28.5 11.9894C28.4011 11.9894 28.3045 12.0187 28.2222 12.0737C28.14 12.1286 28.0759 12.2067 28.0381 12.2981C28.0002 12.3895 27.9903 12.4901 28.0096 12.5871C28.0289 12.6841 28.0765 12.7732 28.1464 12.8432C28.2403 12.9368 28.3674 12.9894 28.5 12.9894C28.6326 12.9894 28.7597 12.9368 28.8536 12.8432Z" fill="#0C0C17"/>
    <path d="M28.5525 7.42698C28.4214 7.29529 28.3066 7.14837 28.2104 6.98938L25.1071 8.18251C25.0363 8.20986 24.9723 8.25198 24.9191 8.30608C24.866 8.36018 24.8251 8.42499 24.799 8.4962L22.0745 15.958C21.9941 16.1799 21.9784 16.4201 22.0293 16.6505C22.0802 16.881 22.1956 17.0922 22.3621 17.2595L22.6687 17.5654L26.3946 13.8401C26.1672 13.4296 26.0959 12.9507 26.1939 12.4917C26.2919 12.0327 26.5526 11.6247 26.9278 11.3428C27.3031 11.0608 27.7676 10.9241 28.2358 10.9577C28.704 10.9913 29.1442 11.193 29.4753 11.5256C29.8065 11.8583 30.0061 12.2994 30.0376 12.7676C30.069 13.2359 29.93 13.6997 29.6463 14.0736C29.3625 14.4474 28.9532 14.7061 28.4937 14.802C28.0342 14.8978 27.5555 14.8243 27.146 14.595L23.4201 18.3202L23.7268 18.6268C23.96 18.8591 24.2758 18.9895 24.605 18.9894C24.7499 18.9896 24.8938 18.9642 25.0299 18.9143L32.4929 16.1903C32.5642 16.1642 32.629 16.1233 32.6831 16.0702C32.7372 16.0171 32.7793 15.953 32.8067 15.8823L34 12.7801C33.8409 12.6838 33.694 12.5688 33.5623 12.4374L28.5525 7.42698Z" fill="#0C0C17"/>
    <path d="M11 30.8227C11 30.8669 11.0201 30.9093 11.0558 30.9406C11.0915 30.9718 11.14 30.9894 11.1905 30.9894H18.8095C18.86 30.9894 18.9085 30.9718 18.9442 30.9406C18.9799 30.9093 19 30.8669 19 30.8227V29.9894H11V30.8227Z" fill="#0C0C17"/>
    <path d="M16.7044 24.0422L15 20.9894L13.2956 24.0422C13.2268 24.1644 13.1179 24.2556 12.9896 24.2983C12.8613 24.341 12.7226 24.3323 12.6 24.2738L10 23.039L11.0365 26.9894H18.9635L20 23.0437L17.4 24.2784C17.2769 24.3363 17.1379 24.3442 17.0096 24.3007C16.8812 24.2571 16.7726 24.1651 16.7044 24.0422Z" fill="#0C0C17"/>
    <path d="M6 16.9894V34.9894H24V19.9971C23.5829 19.9081 23.2003 19.7011 22.8976 19.4007L21.5887 18.0918C21.2878 17.7895 21.0807 17.4066 20.9923 16.9894H6ZM19.5849 30.7441C19.5845 31.0592 19.4592 31.3614 19.2364 31.5842C19.0135 31.8071 18.7114 31.9324 18.3962 31.9328H11.6038C11.2886 31.9324 10.9865 31.8071 10.7636 31.5842C10.5408 31.3614 10.4155 31.0592 10.4151 30.7441V29.3856C10.4151 29.2505 10.4688 29.1209 10.5643 29.0254C10.6598 28.9298 10.7894 28.8762 10.9245 28.8762H19.0755C19.2106 28.8762 19.3402 28.9298 19.4357 29.0254C19.5312 29.1209 19.5849 29.2505 19.5849 29.3856V30.7441ZM20.9251 22.5932L19.5666 27.4837C19.5366 27.591 19.4725 27.6856 19.3838 27.753C19.2951 27.8205 19.1869 27.8571 19.0755 27.8573H10.9245C10.8132 27.8571 10.705 27.8206 10.6164 27.7533C10.5277 27.686 10.4635 27.5916 10.4334 27.4844L9.07494 22.5938C9.04902 22.5006 9.05019 22.4019 9.07832 22.3093C9.10645 22.2167 9.16036 22.1341 9.23376 22.071C9.30716 22.0079 9.39701 21.9671 9.49278 21.9532C9.58855 21.9393 9.6863 21.953 9.77457 21.9927L12.768 23.3342L14.5585 20.2966C14.6035 20.2203 14.6677 20.157 14.7446 20.1131C14.8216 20.0691 14.9087 20.046 14.9973 20.046C15.0859 20.046 15.173 20.0691 15.2499 20.1131C15.3269 20.157 15.3911 20.2203 15.4361 20.2966L17.2293 23.3342L20.2227 21.9927C20.311 21.953 20.4087 21.9393 20.5045 21.9532C20.6003 21.9671 20.6901 22.0079 20.7635 22.071C20.8369 22.1341 20.8908 22.2167 20.919 22.3093C20.9471 22.4019 20.9483 22.5006 20.9223 22.5938L20.9251 22.5932Z" fill="#0C0C17"/>
    <path d="M25.2267 19.8534V35.696C25.2267 35.834 25.1719 35.9662 25.0744 36.0637C24.9768 36.1613 24.8446 36.216 24.7067 36.216H5.29333C5.15542 36.216 5.02316 36.1613 4.92564 36.0637C4.82812 35.9662 4.77333 35.834 4.77333 35.696V16.2827C4.77333 16.1448 4.82812 16.0125 4.92564 15.915C5.02316 15.8175 5.15542 15.7627 5.29333 15.7627H21.1409C21.1582 15.6934 21.1783 15.6282 21.2019 15.5623L22.1413 12.9894H3.90667C3.40121 12.9901 2.91667 13.1912 2.55926 13.5486C2.20185 13.9061 2.00073 14.3906 2 14.896V37.0827C2.00073 37.5882 2.20185 38.0727 2.55926 38.4301C2.91667 38.7875 3.40121 38.9886 3.90667 38.9894H26.0933C26.5988 38.9886 27.0833 38.7875 27.4407 38.4301C27.7981 38.0727 27.9993 37.5882 28 37.0827V18.848L25.427 19.784C25.3612 19.8111 25.296 19.8319 25.2267 19.8534Z" fill="#0C0C17"/>
</svg>
