<svg width="510" height="92" viewBox="0 0 510 92" fill="none" xmlns="http://www.w3.org/2000/svg">
    <rect width="259" height="92" fill="#FDEBEA"/>
    <path d="M63.7343 52.4453H48.2656C46.1333 52.4453 44.3984 54.1802 44.3984 56.3125C44.3984 58.4448 46.1333 60.1797 48.2656 60.1797C49.9441 60.1797 51.3614 59.0988 51.8954 57.6016H46.9765V55.0234H65.0234V57.6016H60.1045C60.6386 59.0988 62.0559 60.1797 63.7343 60.1797C65.8667 60.1797 67.6015 58.4448 67.6015 56.3125C67.6015 54.1802 65.8667 52.4453 63.7343 52.4453Z" fill="#0C0C17"/>
    <path d="M72.5345 39.2505C72.7504 38.2106 72.8847 37.1602 72.9404 36.1028C74.1627 35.5737 76.3544 34.3689 77.3813 32.1664C78.8113 29.0975 77.3058 25.2135 77.24 25.0611L76.7871 24L75.6817 24.3347C75.5246 24.3827 71.8021 25.8282 70.372 28.8961C69.1628 31.491 70.0467 34.438 70.3898 35.3857C70.3495 37.2854 70.0105 39.166 69.3871 40.9888C67.812 42.5857 67.1453 44.7606 66.9573 45.722C66.0281 47.0907 64.5756 48.4831 62.6386 49.8672H63.7337C64.5994 49.8672 65.4232 50.0441 66.1782 50.3553C67.1594 49.5013 67.9449 48.6372 68.62 47.7614C68.9984 47.8104 69.571 47.8554 70.139 47.8554C71.4845 47.8554 73.2217 47.6073 74.6773 46.5901C77.4491 44.6478 77.8419 40.782 77.862 40.6185L77.9993 39.4728L76.8751 39.2096C76.7579 39.1827 74.7484 38.7131 72.5345 39.2505Z" fill="#0C0C17"/>
    <path d="M64.7925 44.7111L68.2404 27.4762L60.2143 33.4959L56.002 24.9844L51.7898 33.4959L43.6777 27.4762L47.2116 44.7111H64.7925ZM54.713 36.9767H57.2911V39.5548H54.713V36.9767Z" fill="#E8392C"/>
    <path d="M37.3257 46.5905C38.7799 47.6076 40.5158 47.8557 41.8626 47.8557C42.4306 47.8557 42.9174 47.8104 43.2957 47.7614C43.9708 48.6372 44.8419 49.5013 45.8228 50.3546C46.5771 50.0441 47.4005 49.8672 48.2656 49.8672H49.3633C47.4264 48.4831 45.8879 47.091 44.9587 45.722C44.7707 44.761 44.1903 42.5867 42.6152 40.9898C41.9915 39.1666 41.6525 37.2861 41.6118 35.386C41.9553 34.4384 42.8391 31.491 41.63 28.8961C40.1999 25.8282 36.4774 24.3827 36.32 24.3347L35.2149 24L34.7617 25.0611C34.6962 25.2135 33.1906 28.8934 34.6207 31.9626C35.6472 34.1648 37.8393 35.5737 39.0616 36.1024C39.1173 37.1599 39.2513 38.2096 39.4671 39.2489C37.2545 38.7111 35.2414 39.1827 35.1242 39.2096L34 39.4728L34.1373 40.6185C34.1574 40.782 34.5512 44.6482 37.3257 46.5905Z" fill="#0C0C17"/>
    <path d="M65.0234 68V62.6272C64.6068 62.7125 64.1758 62.7578 63.7343 62.7578C60.6221 62.7578 58.0185 60.5399 57.4196 57.6016H54.5803C53.9814 60.5399 51.3778 62.7578 48.2656 62.7578C47.8242 62.7578 47.3931 62.7125 46.9765 62.6272V68H51.2734V65.4219H53.8515V68H58.1484V65.4219H60.7265V68H65.0234Z" fill="#0C0C17"/>
    <path d="M104.8 47V44.248C105.397 43.1173 106.123 42.104 106.976 41.208C107.829 40.312 108.779 39.3947 109.824 38.456C110.699 37.6667 111.403 37.016 111.936 36.504C112.491 35.992 112.896 35.512 113.152 35.064C113.429 34.5947 113.568 34.0613 113.568 33.464C113.568 31.9493 112.576 31.192 110.592 31.192C109.675 31.192 108.779 31.2987 107.904 31.512C107.051 31.7253 106.24 31.992 105.472 32.312V27.192C106.347 26.8507 107.371 26.584 108.544 26.392C109.717 26.1787 110.901 26.072 112.096 26.072C114.656 26.072 116.565 26.68 117.824 27.896C119.083 29.0907 119.712 30.7013 119.712 32.728C119.712 33.688 119.595 34.52 119.36 35.224C119.147 35.9067 118.805 36.536 118.336 37.112C117.867 37.688 117.259 38.3067 116.512 38.968C115.851 39.544 115.2 40.12 114.56 40.696C113.92 41.272 113.408 41.8373 113.024 42.392H119.904V47H104.8ZM129.615 47V43.128H120.239V39.192L130.415 26.392H135.631V38.264H137.487V43.128H135.631V47H129.615ZM126.031 38.52H130.671V32.92L126.031 38.52ZM141.961 44.056V40.216H137.801V35.608H141.961V31.736H146.601V35.608H150.761V40.216H146.601V44.056H141.961Z" fill="#0C0C17"/>
    <path d="M104.704 70L108.64 59.696H110.592L114.496 70H112.704L111.68 67.344H107.536L106.512 70H104.704ZM107.808 66H111.392L109.6 61.28L107.808 66ZM116.688 70L114.688 62.416H116.432L117.744 67.936L119.232 63.344V62.416H120.56L122.208 67.936L123.52 62.416H125.248L123.264 70H121.616L120 65.04L118.352 70H116.688ZM128.595 70.16C128.115 70.16 127.667 70.0747 127.251 69.904C126.845 69.7333 126.52 69.4773 126.275 69.136C126.029 68.784 125.907 68.352 125.907 67.84C125.907 67.1147 126.152 66.5333 126.643 66.096C127.144 65.648 127.912 65.424 128.947 65.424H131.379V65.088C131.379 64.7253 131.32 64.4373 131.203 64.224C131.096 64.0107 130.893 63.856 130.595 63.76C130.307 63.664 129.88 63.616 129.315 63.616C128.419 63.616 127.581 63.7493 126.803 64.016V62.72C127.144 62.5813 127.56 62.4693 128.051 62.384C128.541 62.2987 129.069 62.256 129.635 62.256C130.744 62.256 131.587 62.48 132.163 62.928C132.749 63.376 133.043 64.1067 133.043 65.12V70H131.555L131.443 69.232C131.133 69.5307 130.749 69.76 130.291 69.92C129.843 70.08 129.277 70.16 128.595 70.16ZM129.059 68.912C129.581 68.912 130.035 68.8267 130.419 68.656C130.813 68.4747 131.133 68.2347 131.379 67.936V66.608H128.979C128.467 66.608 128.093 66.7093 127.859 66.912C127.635 67.104 127.523 67.4027 127.523 67.808C127.523 68.2027 127.656 68.4853 127.923 68.656C128.189 68.8267 128.568 68.912 129.059 68.912ZM134.977 70V62.416H136.577L136.673 63.296C137.035 63.0613 137.467 62.848 137.969 62.656C138.47 62.464 138.966 62.3307 139.457 62.256V63.584C139.158 63.6373 138.833 63.7173 138.481 63.824C138.139 63.92 137.814 64.032 137.505 64.16C137.195 64.2773 136.934 64.4 136.721 64.528V70H134.977ZM143.55 70.16C142.868 70.16 142.265 70.0427 141.742 69.808C141.22 69.5733 140.814 69.184 140.526 68.64C140.238 68.096 140.094 67.3653 140.094 66.448C140.094 65.5413 140.249 64.7787 140.558 64.16C140.868 63.5307 141.294 63.056 141.838 62.736C142.393 62.416 143.017 62.256 143.71 62.256C144.169 62.256 144.574 62.3093 144.926 62.416C145.289 62.5227 145.636 62.688 145.966 62.912V59.216H147.71V70H146.222L146.11 69.248C145.769 69.5573 145.396 69.7867 144.99 69.936C144.585 70.0853 144.105 70.16 143.55 70.16ZM144.014 68.848C144.793 68.848 145.444 68.5813 145.966 68.048V64.256C145.465 63.808 144.836 63.584 144.078 63.584C143.342 63.584 142.788 63.8293 142.414 64.32C142.041 64.8107 141.854 65.5253 141.854 66.464C141.854 67.3707 142.025 67.9947 142.366 68.336C142.718 68.6773 143.268 68.848 144.014 68.848ZM152.255 70.16C151.732 70.16 151.231 70.1227 150.751 70.048C150.281 69.9733 149.892 69.8827 149.583 69.776V68.304C149.945 68.4427 150.345 68.5493 150.783 68.624C151.22 68.6987 151.636 68.736 152.031 68.736C152.628 68.736 153.055 68.6827 153.311 68.576C153.567 68.4693 153.695 68.2613 153.695 67.952C153.695 67.728 153.615 67.552 153.455 67.424C153.305 67.296 153.076 67.1787 152.767 67.072C152.468 66.9653 152.084 66.8373 151.615 66.688C151.167 66.5387 150.777 66.3787 150.447 66.208C150.116 66.0267 149.86 65.7973 149.679 65.52C149.497 65.2427 149.407 64.88 149.407 64.432C149.407 63.7387 149.657 63.2053 150.159 62.832C150.66 62.448 151.465 62.256 152.575 62.256C153.012 62.256 153.428 62.288 153.823 62.352C154.217 62.416 154.553 62.496 154.831 62.592V64.048C154.532 63.9307 154.201 63.84 153.839 63.776C153.487 63.712 153.156 63.68 152.847 63.68C152.292 63.68 151.871 63.728 151.583 63.824C151.305 63.92 151.167 64.112 151.167 64.4C151.167 64.6987 151.311 64.912 151.599 65.04C151.897 65.1573 152.372 65.3227 153.023 65.536C153.62 65.7173 154.095 65.9093 154.447 66.112C154.799 66.3147 155.049 66.56 155.199 66.848C155.359 67.1253 155.439 67.488 155.439 67.936C155.439 68.6827 155.167 69.2427 154.623 69.616C154.079 69.9787 153.289 70.16 152.255 70.16ZM162.932 70L160.532 59.696H162.244L163.988 67.424L165.94 60.944V59.696H167.364L169.556 67.424L171.332 59.696H173.028L170.644 70H168.932L166.868 62.784L164.676 70H162.932ZM174.664 60.832V59.392H176.568V60.832H174.664ZM174.808 70V63.744H173.656L173.816 62.416H176.552V70H174.808ZM178.586 70V62.416H180.186L180.266 63.216C180.607 62.9493 181.013 62.7253 181.482 62.544C181.962 62.352 182.49 62.256 183.066 62.256C184.047 62.256 184.762 62.4853 185.21 62.944C185.658 63.4027 185.882 64.1173 185.882 65.088V70H184.154V65.168C184.154 64.5813 184.031 64.1707 183.786 63.936C183.551 63.7013 183.103 63.584 182.442 63.584C182.047 63.584 181.658 63.664 181.274 63.824C180.901 63.984 180.586 64.192 180.33 64.448V70H178.586ZM187.836 70V62.416H189.436L189.516 63.216C189.857 62.9493 190.263 62.7253 190.732 62.544C191.212 62.352 191.74 62.256 192.316 62.256C193.297 62.256 194.012 62.4853 194.46 62.944C194.908 63.4027 195.132 64.1173 195.132 65.088V70H193.404V65.168C193.404 64.5813 193.281 64.1707 193.036 63.936C192.801 63.7013 192.353 63.584 191.692 63.584C191.297 63.584 190.908 63.664 190.524 63.824C190.151 63.984 189.836 64.192 189.58 64.448V70H187.836ZM197.726 60.832V59.392H199.63V60.832H197.726ZM197.87 70V63.744H196.718L196.878 62.416H199.614V70H197.87ZM201.649 70V62.416H203.249L203.329 63.216C203.67 62.9493 204.075 62.7253 204.545 62.544C205.025 62.352 205.553 62.256 206.129 62.256C207.11 62.256 207.825 62.4853 208.273 62.944C208.721 63.4027 208.945 64.1173 208.945 65.088V70H207.217V65.168C207.217 64.5813 207.094 64.1707 206.849 63.936C206.614 63.7013 206.166 63.584 205.505 63.584C205.11 63.584 204.721 63.664 204.337 63.824C203.963 63.984 203.649 64.192 203.393 64.448V70H201.649ZM213.971 72.816C213.405 72.816 212.84 72.7787 212.275 72.704C211.709 72.64 211.229 72.5387 210.835 72.4V71.056C211.261 71.1947 211.752 71.3013 212.307 71.376C212.861 71.4507 213.389 71.488 213.891 71.488C214.659 71.488 215.219 71.4453 215.571 71.36C215.923 71.2747 216.099 71.0827 216.099 70.784C216.099 70.56 216.013 70.4 215.843 70.304C215.672 70.2187 215.347 70.176 214.867 70.176H212.819C211.443 70.176 210.755 69.6907 210.755 68.72C210.755 68.4107 210.845 68.1227 211.027 67.856C211.208 67.5893 211.496 67.3867 211.891 67.248C211.453 67.0347 211.128 66.7413 210.915 66.368C210.712 65.9947 210.611 65.5467 210.611 65.024C210.611 64.0533 210.899 63.3493 211.475 62.912C212.061 62.4747 212.936 62.256 214.099 62.256C214.344 62.256 214.6 62.2773 214.867 62.32C215.133 62.352 215.341 62.384 215.491 62.416H218.275L218.227 63.552H216.947C217.149 63.7227 217.299 63.936 217.395 64.192C217.491 64.448 217.539 64.7253 217.539 65.024C217.539 65.8347 217.293 66.4747 216.803 66.944C216.312 67.4027 215.571 67.632 214.579 67.632C214.408 67.632 214.248 67.6267 214.099 67.616C213.96 67.5947 213.805 67.5733 213.635 67.552C213.315 67.584 213.027 67.6693 212.771 67.808C212.515 67.9467 212.387 68.1333 212.387 68.368C212.387 68.528 212.451 68.6453 212.579 68.72C212.707 68.784 212.92 68.816 213.219 68.816H215.347C216.104 68.816 216.685 68.9813 217.091 69.312C217.507 69.632 217.715 70.1013 217.715 70.72C217.715 71.4667 217.389 72 216.739 72.32C216.099 72.6507 215.176 72.816 213.971 72.816ZM214.099 66.528C214.792 66.528 215.272 66.4107 215.539 66.176C215.816 65.9413 215.955 65.5413 215.955 64.976C215.955 64.4107 215.816 64 215.539 63.744C215.272 63.488 214.792 63.36 214.099 63.36C213.448 63.36 212.973 63.4827 212.675 63.728C212.376 63.9733 212.227 64.3893 212.227 64.976C212.227 65.52 212.365 65.9147 212.643 66.16C212.931 66.4053 213.416 66.528 214.099 66.528Z" fill="#0C0C17"/>
    <rect width="227" height="92" transform="translate(283)" fill="#FDEBEA"/>
    <path d="M354 32C354.265 32 354.52 31.8946 354.707 31.7071C354.895 31.5195 355 31.2652 355 30.9999V24.9999C355.001 24.8678 354.976 24.7367 354.927 24.6143C354.877 24.4918 354.804 24.3805 354.711 24.2866C354.618 24.1927 354.507 24.1181 354.385 24.0673C354.263 24.0164 354.132 23.9902 354 23.9902C353.868 23.9902 353.737 24.0164 353.615 24.0673C353.493 24.1181 353.382 24.1927 353.289 24.2866C353.197 24.3805 353.123 24.4918 353.073 24.6143C353.024 24.7367 352.999 24.8678 353 24.9999V30.9999C353 31.2652 353.105 31.5195 353.293 31.707C353.48 31.8946 353.735 32 354 32Z" fill="#0C0C17"/>
    <path d="M358 36C358.265 36 358.52 35.8946 358.707 35.7071C358.895 35.5195 359 35.2652 359 34.9999V28.9999C359.001 28.8678 358.976 28.7367 358.927 28.6143C358.877 28.4918 358.804 28.3805 358.711 28.2866C358.618 28.1927 358.507 28.1181 358.385 28.0673C358.263 28.0164 358.132 27.9902 358 27.9902C357.868 27.9902 357.737 28.0164 357.615 28.0673C357.493 28.1181 357.383 28.1927 357.29 28.2866C357.197 28.3805 357.123 28.4918 357.073 28.6143C357.024 28.7367 356.999 28.8678 357 28.9999V34.9999C357 35.2652 357.105 35.5195 357.293 35.707C357.48 35.8946 357.735 36 358 36Z" fill="#0C0C17"/>
    <path d="M325 26.0001C324.735 26.0001 324.48 26.1054 324.293 26.2929C324.105 26.4805 324 26.7348 324 27V33C324.003 33.2635 324.109 33.5154 324.296 33.7009C324.484 33.8863 324.736 33.9903 325 33.9903C325.264 33.9903 325.516 33.8863 325.704 33.7009C325.891 33.5154 325.997 33.2635 326 33V27C326 26.7348 325.895 26.4805 325.707 26.293C325.52 26.1054 325.265 26.0001 325 26.0001Z" fill="#0C0C17"/>
    <path d="M321 32C320.735 32 320.48 32.1054 320.293 32.2929C320.105 32.4804 320 32.7348 320 33V39C320.003 39.2636 320.109 39.5154 320.296 39.7009C320.484 39.8863 320.736 39.9904 321 39.9904C321.264 39.9904 321.516 39.8863 321.704 39.7009C321.891 39.5154 321.997 39.2636 322 39V33C322 32.7348 321.895 32.4805 321.707 32.2929C321.52 32.1054 321.265 32 321 32Z" fill="#0C0C17"/>
    <path d="M359.707 48.2931C359.614 48.2002 359.504 48.1265 359.382 48.0762C359.261 48.026 359.131 48.0001 359 48.0001C358.868 48.0001 358.738 48.026 358.617 48.0762C358.496 48.1265 358.385 48.2002 358.293 48.2931L357 49.5859V40.0001C356.997 39.7366 356.891 39.4847 356.703 39.2993C356.516 39.1138 356.263 39.0098 356 39.0098C355.736 39.0098 355.483 39.1138 355.296 39.2993C355.109 39.4847 355.002 39.7366 355 40.0001V49.5859L353.707 48.2931C353.518 48.1091 353.265 48.0068 353.002 48.0083C352.739 48.0098 352.487 48.115 352.301 48.3012C352.115 48.4873 352.009 48.7393 352.008 49.0025C352.006 49.2657 352.109 49.5188 352.293 49.7071L355.293 52.7071C355.385 52.8 355.496 52.8736 355.617 52.9239C355.738 52.9742 355.868 53 356 53C356.131 53 356.261 52.9742 356.382 52.9239C356.504 52.8736 356.614 52.8 356.707 52.7071L359.707 49.7071C359.799 49.6142 359.873 49.504 359.923 49.3827C359.974 49.2614 360 49.1314 360 49.0001C360 48.8688 359.974 48.7387 359.923 48.6174C359.873 48.4961 359.799 48.3859 359.707 48.2931Z" fill="#0C0C17"/>
    <path d="M340 28C337.824 28 335.698 28.6451 333.889 29.8538C332.08 31.0625 330.67 32.7805 329.837 34.7905C329.005 36.8004 328.787 39.0122 329.211 41.146C329.636 43.2797 330.683 45.2397 332.222 46.7781C333.76 48.3165 335.72 49.3641 337.854 49.7886C339.988 50.213 342.199 49.9952 344.209 49.1626C346.219 48.3301 347.937 46.9202 349.146 45.1112C350.355 43.3023 351 41.1756 351 39C351 36.0826 349.841 33.2847 347.778 31.2218C345.715 29.1589 342.917 28 340 28ZM341.758 43.7039C341.515 43.8244 341.262 43.92 341 43.9893V45.0001C340.997 45.2636 340.891 45.5155 340.704 45.7009C340.516 45.8864 340.264 45.9904 340 45.9904C339.736 45.9904 339.484 45.8864 339.296 45.7009C339.109 45.5155 339.003 45.2636 339 45.0001V44.0391C338.242 43.8743 337.528 43.5482 336.908 43.0829C336.8 43.006 336.708 42.9084 336.638 42.7957C336.568 42.6831 336.521 42.5576 336.5 42.4266C336.479 42.2956 336.484 42.1617 336.515 42.0327C336.546 41.9037 336.603 41.7823 336.681 41.6754C336.76 41.5685 336.859 41.4783 336.973 41.4101C337.087 41.3418 337.213 41.297 337.344 41.278C337.475 41.2591 337.609 41.2665 337.738 41.2997C337.866 41.333 337.987 41.3915 338.092 41.4719C339.472 42.4863 340.555 42.0705 340.855 41.9192C341.278 41.7048 341.5 41.3823 341.5 41.1745C341.5 40.6999 341.062 40.4526 340.081 40.0776C339.904 40.01 339.739 39.9464 339.596 39.8837C339.498 39.8403 339.38 39.7961 339.25 39.7468C338.357 39.4079 336.5 38.7023 336.5 36.7629C336.5 35.7466 337.167 34.7773 338.242 34.2336C338.485 34.1145 338.738 34.0203 339 33.9524V32.9999C338.999 32.8677 339.023 32.7367 339.073 32.6142C339.123 32.4918 339.196 32.3804 339.289 32.2865C339.382 32.1926 339.493 32.1181 339.615 32.0672C339.737 32.0163 339.868 31.9902 340 31.9902C340.132 31.9902 340.263 32.0163 340.385 32.0672C340.507 32.1181 340.617 32.1926 340.71 32.2865C340.803 32.3804 340.877 32.4918 340.926 32.6142C340.976 32.7367 341.001 32.8677 341 32.9999V33.905C341.757 34.0672 342.471 34.3909 343.092 34.8541C343.306 35.0111 343.448 35.2467 343.488 35.5088C343.528 35.771 343.463 36.0384 343.306 36.2521C343.149 36.4658 342.913 36.6083 342.651 36.6484C342.389 36.6884 342.121 36.6227 341.908 36.4656C340.527 35.4513 339.445 35.867 339.145 36.0183C338.722 36.2327 338.5 36.5553 338.5 36.763C338.5 37.2334 339.013 37.5176 339.96 37.8772C340.127 37.9404 340.278 37.9983 340.404 38.0539C340.519 38.1045 340.652 38.1548 340.794 38.2092C341.74 38.5706 343.5 39.2432 343.5 41.1746C343.5 42.1909 342.832 43.1601 341.758 43.7039Z" fill="#E8392C"/>
    <path d="M359.856 61.1274C359.772 61.3066 359.651 61.4665 359.502 61.5972C359.354 61.728 359.18 61.8267 358.991 61.8874L341.501 67.7173C340.828 67.945 340.116 68.0366 339.407 67.9868C338.698 67.937 338.006 67.7469 337.371 67.4274L332.281 64.8824C331.385 64.4343 330.369 64.282 329.381 64.4473L325.336 65.1223V56.3323L332.261 54.0274C333.363 53.6616 334.552 53.6581 335.656 54.0174L344.406 56.8824C344.736 57.0016 345.008 57.2403 345.17 57.5512C345.332 57.862 345.371 58.2223 345.28 58.5607C345.189 58.8991 344.974 59.1908 344.678 59.3782C344.382 59.5656 344.026 59.6349 343.681 59.5723L338.181 58.5723C338.052 58.5487 337.919 58.5507 337.791 58.5782C337.663 58.6058 337.541 58.6583 337.433 58.7328C337.326 58.8074 337.233 58.9024 337.162 59.0126C337.091 59.1227 337.042 59.2458 337.018 59.3749C336.995 59.5039 336.997 59.6363 337.024 59.7645C337.052 59.8928 337.104 60.0144 337.179 60.1223C337.253 60.2302 337.349 60.3225 337.459 60.3937C337.569 60.4649 337.692 60.5137 337.821 60.5373L343.321 61.5373C343.522 61.5755 343.726 61.5939 343.931 61.5924C344.704 61.5935 345.455 61.3287 346.056 60.8424L358.311 59.0324C358.576 58.9935 358.846 59.0272 359.093 59.1301C359.339 59.2329 359.554 59.4009 359.712 59.6161C359.871 59.8313 359.968 60.0856 359.994 60.3518C360.019 60.6181 359.971 60.8861 359.856 61.1274Z" fill="#0C0C17"/>
    <path d="M323.335 54.8524V66.3774C323.334 66.6676 323.219 66.9457 323.013 67.1509C322.808 67.356 322.53 67.4716 322.24 67.4724H319.095C318.951 67.4725 318.809 67.4442 318.676 67.3892C318.543 67.3342 318.422 67.2535 318.321 67.1518C318.219 67.0501 318.138 66.9294 318.083 66.7965C318.028 66.6636 318 66.5212 318 66.3774V54.8524C318.001 54.5623 318.116 54.2842 318.322 54.079C318.527 53.8738 318.805 53.7582 319.095 53.7574H322.24C322.53 53.7591 322.807 53.875 323.012 54.08C323.217 54.285 323.333 54.5626 323.335 54.8524Z" fill="#0C0C17"/>
    <path d="M391.224 47V31.96L387.8 32.472V27.448L397.24 26.072V47H391.224ZM408.703 47.32C406.336 47.32 404.426 46.9147 402.976 46.104C401.546 45.272 400.501 44.0667 399.839 42.488C399.178 40.9093 398.847 38.9787 398.847 36.696C398.847 34.4133 399.178 32.4827 399.839 30.904C400.501 29.3253 401.546 28.1307 402.976 27.32C404.426 26.488 406.336 26.072 408.703 26.072C412.245 26.072 414.773 26.9893 416.288 28.824C417.802 30.6373 418.56 33.2613 418.56 36.696C418.56 40.1093 417.802 42.7333 416.288 44.568C414.773 46.4027 412.245 47.32 408.703 47.32ZM408.703 42.2C410.09 42.2 411.05 41.7413 411.583 40.824C412.138 39.8853 412.416 38.5093 412.416 36.696C412.416 34.8613 412.138 33.4853 411.583 32.568C411.05 31.6507 410.09 31.192 408.703 31.192C407.317 31.192 406.346 31.6507 405.792 32.568C405.258 33.4853 404.991 34.8613 404.991 36.696C404.991 38.5093 405.258 39.8853 405.792 40.824C406.346 41.7413 407.317 42.2 408.703 42.2ZM429.376 47.32C427.008 47.32 425.099 46.9147 423.648 46.104C422.219 45.272 421.173 44.0667 420.512 42.488C419.851 40.9093 419.52 38.9787 419.52 36.696C419.52 34.4133 419.851 32.4827 420.512 30.904C421.173 29.3253 422.219 28.1307 423.648 27.32C425.099 26.488 427.008 26.072 429.376 26.072C432.917 26.072 435.445 26.9893 436.96 28.824C438.475 30.6373 439.232 33.2613 439.232 36.696C439.232 40.1093 438.475 42.7333 436.96 44.568C435.445 46.4027 432.917 47.32 429.376 47.32ZM429.376 42.2C430.763 42.2 431.723 41.7413 432.256 40.824C432.811 39.8853 433.088 38.5093 433.088 36.696C433.088 34.8613 432.811 33.4853 432.256 32.568C431.723 31.6507 430.763 31.192 429.376 31.192C427.989 31.192 427.019 31.6507 426.464 32.568C425.931 33.4853 425.664 34.8613 425.664 36.696C425.664 38.5093 425.931 39.8853 426.464 40.824C427.019 41.7413 427.989 42.2 429.376 42.2ZM445.057 35.992C443.478 35.992 442.273 35.5547 441.441 34.68C440.609 33.784 440.193 32.6427 440.193 31.256C440.193 29.656 440.609 28.3973 441.441 27.48C442.273 26.5413 443.478 26.072 445.057 26.072C446.657 26.072 447.873 26.5413 448.705 27.48C449.537 28.3973 449.953 29.656 449.953 31.256C449.953 32.6427 449.537 33.784 448.705 34.68C447.873 35.5547 446.657 35.992 445.057 35.992ZM443.521 47L454.273 26.392H459.969L449.185 47H443.521ZM445.057 32.856C445.654 32.856 446.081 32.7067 446.337 32.408C446.593 32.088 446.721 31.6613 446.721 31.128C446.721 29.848 446.166 29.208 445.057 29.208C444.481 29.208 444.065 29.3573 443.809 29.656C443.553 29.9547 443.425 30.4453 443.425 31.128C443.425 31.6613 443.553 32.088 443.809 32.408C444.065 32.7067 444.481 32.856 445.057 32.856ZM458.433 47.32C456.854 47.32 455.649 46.8827 454.817 46.008C453.985 45.112 453.569 43.9707 453.569 42.584C453.569 41.0053 453.985 39.7573 454.817 38.84C455.649 37.9013 456.854 37.432 458.433 37.432C460.033 37.432 461.249 37.9013 462.081 38.84C462.913 39.7573 463.329 41.0053 463.329 42.584C463.329 43.9707 462.913 45.112 462.081 46.008C461.249 46.8827 460.033 47.32 458.433 47.32ZM458.433 44.216C459.03 44.216 459.457 44.0667 459.713 43.768C459.969 43.448 460.097 43.0213 460.097 42.488C460.097 41.208 459.542 40.568 458.433 40.568C457.857 40.568 457.441 40.7173 457.185 41.016C456.929 41.3147 456.801 41.8053 456.801 42.488C456.801 43.0213 456.929 43.448 457.185 43.768C457.441 44.0667 457.857 44.216 458.433 44.216Z" fill="#0C0C17"/>
    <path d="M388.008 70V59.696H389.8L393.064 66.368L396.312 59.696H398.104V70H396.376V62.528L393.592 68.224H392.536L389.736 62.528V70H388.008ZM403.749 70.16C402.384 70.16 401.381 69.8187 400.741 69.136C400.112 68.4533 399.797 67.4773 399.797 66.208C399.797 64.9387 400.117 63.9627 400.757 63.28C401.397 62.5973 402.395 62.256 403.749 62.256C405.115 62.256 406.117 62.5973 406.757 63.28C407.397 63.9627 407.717 64.9387 407.717 66.208C407.717 67.4773 407.397 68.4533 406.757 69.136C406.128 69.8187 405.125 70.16 403.749 70.16ZM403.749 68.688C404.549 68.688 405.115 68.496 405.445 68.112C405.787 67.7173 405.957 67.0827 405.957 66.208C405.957 65.3333 405.787 64.704 405.445 64.32C405.115 63.936 404.549 63.744 403.749 63.744C402.96 63.744 402.395 63.936 402.053 64.32C401.723 64.704 401.557 65.3333 401.557 66.208C401.557 67.0827 401.723 67.7173 402.053 68.112C402.395 68.496 402.96 68.688 403.749 68.688ZM409.414 70V62.416H411.014L411.094 63.216C411.436 62.9493 411.841 62.7253 412.31 62.544C412.79 62.352 413.318 62.256 413.894 62.256C414.876 62.256 415.59 62.4853 416.038 62.944C416.486 63.4027 416.71 64.1173 416.71 65.088V70H414.982V65.168C414.982 64.5813 414.86 64.1707 414.614 63.936C414.38 63.7013 413.932 63.584 413.27 63.584C412.876 63.584 412.486 63.664 412.102 63.824C411.729 63.984 411.414 64.192 411.158 64.448V70H409.414ZM422.348 70.16C421.025 70.16 420.001 69.8347 419.276 69.184C418.551 68.5333 418.188 67.536 418.188 66.192C418.188 64.976 418.497 64.016 419.116 63.312C419.735 62.608 420.673 62.256 421.932 62.256C423.084 62.256 423.948 62.56 424.524 63.168C425.111 63.7653 425.404 64.5387 425.404 65.488V66.896H419.852C419.937 67.632 420.204 68.1387 420.652 68.416C421.1 68.6933 421.783 68.832 422.7 68.832C423.084 68.832 423.479 68.7947 423.884 68.72C424.289 68.6453 424.641 68.5493 424.94 68.432V69.712C424.599 69.8613 424.204 69.9733 423.756 70.048C423.319 70.1227 422.849 70.16 422.348 70.16ZM419.852 65.76H423.868V65.232C423.868 64.7093 423.724 64.304 423.436 64.016C423.148 63.7173 422.663 63.568 421.98 63.568C421.169 63.568 420.609 63.744 420.3 64.096C420.001 64.448 419.852 65.0027 419.852 65.76ZM427.939 72.816C427.363 72.816 426.872 72.7413 426.467 72.592V71.296C426.648 71.36 426.813 71.4027 426.963 71.424C427.123 71.4453 427.283 71.456 427.443 71.456C427.773 71.456 428.04 71.4027 428.243 71.296C428.445 71.1893 428.621 71.0187 428.771 70.784C428.931 70.56 429.101 70.2667 429.283 69.904L425.907 62.416H427.715L430.147 68.048L432.611 62.416H434.403L431.315 69.568C431.048 70.208 430.76 70.768 430.451 71.248C430.152 71.7387 429.8 72.1227 429.395 72.4C429 72.6773 428.515 72.816 427.939 72.816ZM439.949 70.16C439.395 70.16 438.915 70.0853 438.509 69.936C438.104 69.7867 437.731 69.5573 437.389 69.248L437.293 70H435.789V59.216H437.533V62.912C438.195 62.4747 438.989 62.256 439.917 62.256C440.995 62.256 441.843 62.5653 442.461 63.184C443.091 63.792 443.405 64.7787 443.405 66.144C443.405 67.52 443.096 68.5333 442.477 69.184C441.859 69.8347 441.016 70.16 439.949 70.16ZM439.485 68.848C440.275 68.848 440.829 68.624 441.149 68.176C441.48 67.728 441.645 67.0507 441.645 66.144C441.645 65.2053 441.469 64.544 441.117 64.16C440.765 63.776 440.211 63.584 439.453 63.584C438.664 63.584 438.024 63.8027 437.533 64.24V68.048C438.035 68.5813 438.685 68.848 439.485 68.848ZM447.47 70.16C446.99 70.16 446.542 70.0747 446.126 69.904C445.72 69.7333 445.395 69.4773 445.15 69.136C444.904 68.784 444.782 68.352 444.782 67.84C444.782 67.1147 445.027 66.5333 445.518 66.096C446.019 65.648 446.787 65.424 447.822 65.424H450.254V65.088C450.254 64.7253 450.195 64.4373 450.078 64.224C449.971 64.0107 449.768 63.856 449.47 63.76C449.182 63.664 448.755 63.616 448.19 63.616C447.294 63.616 446.456 63.7493 445.678 64.016V62.72C446.019 62.5813 446.435 62.4693 446.926 62.384C447.416 62.2987 447.944 62.256 448.51 62.256C449.619 62.256 450.462 62.48 451.038 62.928C451.624 63.376 451.918 64.1067 451.918 65.12V70H450.43L450.318 69.232C450.008 69.5307 449.624 69.76 449.166 69.92C448.718 70.08 448.152 70.16 447.47 70.16ZM447.934 68.912C448.456 68.912 448.91 68.8267 449.294 68.656C449.688 68.4747 450.008 68.2347 450.254 67.936V66.608H447.854C447.342 66.608 446.968 66.7093 446.734 66.912C446.51 67.104 446.398 67.4027 446.398 67.808C446.398 68.2027 446.531 68.4853 446.798 68.656C447.064 68.8267 447.443 68.912 447.934 68.912ZM457.58 70.16C456.246 70.16 455.238 69.824 454.556 69.152C453.873 68.4693 453.532 67.488 453.532 66.208C453.532 64.8747 453.905 63.8827 454.652 63.232C455.409 62.5813 456.417 62.256 457.676 62.256C458.198 62.256 458.636 62.2933 458.988 62.368C459.35 62.4427 459.697 62.56 460.028 62.72V64.016C459.473 63.7387 458.801 63.6 458.012 63.6C457.137 63.6 456.465 63.7973 455.996 64.192C455.526 64.576 455.292 65.248 455.292 66.208C455.292 67.1147 455.5 67.7813 455.916 68.208C456.332 68.624 457.02 68.832 457.98 68.832C458.737 68.832 459.425 68.688 460.044 68.4V69.728C459.692 69.8667 459.313 69.9733 458.908 70.048C458.513 70.1227 458.07 70.16 457.58 70.16ZM461.43 70V59.216H463.174V65.456L466.358 62.416H468.358L465.27 65.472L468.534 70H466.694L464.182 66.4L463.174 67.36V70H461.43Z" fill="#0C0C17"/>
</svg>
