<svg width="20" height="20" viewBox="0 0 20 20" fill="none" xmlns="http://www.w3.org/2000/svg">
    <g clip-path="url(#clip0_1_550)">
        <path d="M16.666 3.3335C17.0865 3.33336 17.4915 3.49217 17.7998 3.77808C18.1081 4.06399 18.297 4.45587 18.3285 4.87516L18.3327 5.00016V15.0002C18.3328 15.4206 18.174 15.8256 17.8881 16.134C17.6022 16.4423 17.2103 16.6311 16.791 16.6627L16.666 16.6668H3.33268C2.9122 16.667 2.50721 16.5082 2.19889 16.2222C1.89057 15.9363 1.70172 15.5445 1.67018 15.1252L1.66602 15.0002V5.00016C1.66588 4.57968 1.82469 4.17469 2.1106 3.86637C2.39651 3.55806 2.78839 3.3692 3.20768 3.33766L3.33268 3.3335H16.666ZM16.666 6.1785L10.8827 11.9618C10.6483 12.1959 10.3306 12.3274 9.99935 12.3274C9.6681 12.3274 9.35039 12.1959 9.11601 11.9618L3.33268 6.1785V15.0002H16.666V6.1785ZM15.4877 5.00016H4.51102L9.99935 10.4885L15.4877 5.00016Z" fill="#BFBFBF"/>
    </g>
    <defs>
        <clipPath id="clip0_1_550">
            <rect width="20" height="20" fill="white"/>
        </clipPath>
    </defs>
</svg>
