<svg width="32" height="39" viewBox="0 0 32 39" fill="none" xmlns="http://www.w3.org/2000/svg">
    <path d="M24.8655 4.15597C25.0404 4.15597 25.1822 4.01418 25.1822 3.83928C25.1822 3.66437 25.0404 3.52258 24.8655 3.52258C24.6906 3.52258 24.5488 3.66437 24.5488 3.83928C24.5488 4.01418 24.6906 4.15597 24.8655 4.15597Z" fill="#0C0C17"/>
    <path d="M20.7503 4.15597C20.9252 4.15597 21.067 4.01418 21.067 3.83928C21.067 3.66437 20.9252 3.52258 20.7503 3.52258C20.5754 3.52258 20.4336 3.66437 20.4336 3.83928C20.4336 4.01418 20.5754 4.15597 20.7503 4.15597Z" fill="#0C0C17"/>
    <path d="M30.5663 7.95625H28.9829V26.9564C28.9829 27.3061 28.6994 27.5897 28.3496 27.5897H22.6495C22.2997 27.5897 22.0161 27.3061 22.0161 26.9564C22.0161 26.6066 22.2996 26.3231 22.6495 26.3231H27.7162V7.95625H25.1828H5.54937H4.28274V26.323H9.3494C9.69919 26.323 9.98271 26.6066 9.98271 26.9563C9.98271 27.3061 9.69919 27.5896 9.3494 27.5896H3.64935C3.29956 27.5896 3.01604 27.3061 3.01604 26.9563V7.95618H1.43264C0.734239 7.95618 0.166016 8.5244 0.166016 9.22288V31.7064C0.166016 32.4048 0.734239 32.9731 1.43264 32.9731H12.4963C12.8461 32.9731 13.1296 33.2567 13.1296 33.6064C13.1296 33.9561 12.846 34.2397 12.4963 34.2397H11.2494V37.723H7.91593C7.48338 37.723 7.13276 38.0066 7.13276 38.3563C7.13276 38.7061 7.48345 38.9897 7.91593 38.9897H11.2494H11.8318H19.8642H20.7495H24.0325C24.4929 38.9897 24.8662 38.7061 24.8662 38.3563C24.8662 38.0066 24.493 37.723 24.0325 37.723H20.7495V34.2398H19.4828C19.133 34.2398 18.8495 33.9562 18.8495 33.6065C18.8495 33.2567 19.133 32.9731 19.4828 32.9731H30.5662C31.2646 32.9731 31.8329 32.4049 31.8329 31.7064V9.22288C31.833 8.5244 31.2647 7.95625 30.5663 7.95625ZM7.44938 19.0396C6.75098 19.0396 6.18276 18.4714 6.18276 17.7729V11.1229C6.18276 10.4244 6.75098 9.85627 7.44938 9.85627H24.5495C25.2479 9.85627 25.8161 10.4245 25.8161 11.1229V17.7729C25.8161 18.4714 25.2479 19.0396 24.5495 19.0396H7.44938ZM20.4056 28.0926L16.6216 31.3719C16.4443 31.5256 16.2219 31.6025 15.9995 31.6025C15.7771 31.6025 15.5547 31.5256 15.3772 31.3719L11.5933 28.0926C11.2721 27.8142 11.1606 27.377 11.3091 26.9787C11.4577 26.5804 11.8283 26.3231 12.2534 26.3231H13.1494V23.7897C13.1494 23.44 13.433 23.1564 13.7828 23.1564C14.1326 23.1564 14.4161 23.44 14.4161 23.7897V26.9564C14.4161 27.3062 14.1325 27.5897 13.7828 27.5897H12.9473L15.9995 30.2349L19.0517 27.5897H18.2162C17.8664 27.5897 17.5828 27.3061 17.5828 26.9564V23.7897C17.5828 23.44 17.8664 23.1564 18.2162 23.1564C18.566 23.1564 18.8495 23.44 18.8495 23.7897V26.323H19.7454C20.1706 26.323 20.5412 26.5803 20.6898 26.9786C20.8383 27.3769 20.7268 27.8141 20.4056 28.0926ZM10.2994 21.8897C9.94961 21.8897 9.66609 21.6061 9.66609 21.2564C9.66609 20.9066 9.94961 20.623 10.2994 20.623H21.6995C22.0493 20.623 22.3329 20.9066 22.3329 21.2564C22.3329 21.6062 22.0494 21.8897 21.6995 21.8897H10.2994Z" fill="#0C0C17"/>
    <path d="M5.54983 6.68943H25.1833H27.7166V2.1875C27.7167 1.52688 27.1792 0.98938 26.5186 0.98938H5.48125C4.82063 0.98938 4.2832 1.52688 4.2832 2.1875V6.68943H5.54983ZM24.8667 2.88939C25.3905 2.88939 25.8167 3.31556 25.8167 3.8394C25.8167 4.36324 25.3905 4.78941 24.8667 4.78941C24.3428 4.78941 23.9167 4.36324 23.9167 3.8394C23.9167 3.31556 24.3428 2.88939 24.8667 2.88939ZM20.75 2.88939C21.2738 2.88939 21.7 3.31556 21.7 3.8394C21.7 4.36324 21.2738 4.78941 20.75 4.78941C20.2261 4.78941 19.7999 4.36324 19.7999 3.8394C19.7999 3.31556 20.2262 2.88939 20.75 2.88939ZM6.81653 3.20609H16.9499C17.2997 3.20609 17.5832 3.48968 17.5832 3.8394C17.5832 4.18912 17.2996 4.47272 16.9499 4.47272H6.81653C6.46674 4.47272 6.18322 4.18912 6.18322 3.8394C6.18322 3.48961 6.46674 3.20609 6.81653 3.20609Z" fill="#0C0C17"/>
    <path d="M24.5494 11.1222H7.44925V17.7722H24.5502L24.5494 11.1222Z" fill="#0C0C17"/>
</svg>
