<svg width="40" height="41" viewBox="0 0 40 41" fill="none" xmlns="http://www.w3.org/2000/svg">
    <path d="M18.8896 30.9372L20.1026 31.3363V24.9035H13.842C13.6344 24.9035 13.4354 24.8211 13.2886 24.6743C13.1418 24.5276 13.0594 24.3285 13.0594 24.121C13.0594 23.9134 13.1418 23.7143 13.2886 23.5676C13.4354 23.4208 13.6344 23.3384 13.842 23.3384H20.1026C20.1037 22.7186 20.2887 22.1131 20.6342 21.5986C20.9797 21.0841 21.4701 20.6837 22.0434 20.4482C22.6167 20.2127 23.2469 20.1526 23.8544 20.2757C24.4618 20.3987 25.019 20.6993 25.4555 21.1393C26.6059 22.2584 26.3633 23.5575 26.3633 25.6861C26.775 25.6868 27.1826 25.7687 27.5626 25.9272C27.9426 26.0857 28.2877 26.3175 28.578 26.6096C28.9887 26.4838 29.4209 26.4439 29.8476 26.4924C30.2744 26.5409 30.6867 26.6766 31.0587 26.8913V7.68677H9.14648V34.2945H14.8985C14.8186 33.7767 14.8734 33.247 15.0576 32.7565C15.2419 32.2659 15.5492 31.8311 15.9502 31.4938C16.3512 31.1565 16.8322 30.9282 17.347 30.8307C17.8618 30.7332 18.3931 30.7699 18.8896 30.9372ZM21.0417 12.0692C20.9172 11.9032 20.8637 11.6945 20.8931 11.489C20.9224 11.2835 21.0322 11.0981 21.1982 10.9736C21.3643 10.8491 21.573 10.7956 21.7784 10.825C21.9839 10.8543 22.1693 10.9641 22.2938 11.1301L24.0155 13.4231L25.7372 11.1301C25.8617 10.9641 26.0471 10.8543 26.2526 10.825C26.458 10.7956 26.6668 10.8491 26.8328 10.9736C26.9988 11.0981 27.1086 11.2835 27.138 11.489C27.1673 11.6945 27.1138 11.9032 26.9893 12.0692L24.9937 14.73L26.9893 17.3908C27.0765 17.507 27.1296 17.6453 27.1427 17.79C27.1557 17.9348 27.1282 18.0803 27.0632 18.2103C26.9982 18.3403 26.8983 18.4496 26.7747 18.526C26.6511 18.6024 26.5086 18.6429 26.3633 18.6429C25.8311 18.6429 25.7998 18.4159 24.0155 16.0369C22.1999 18.4472 22.1921 18.6429 21.6678 18.6429C21.5224 18.6429 21.38 18.6024 21.2563 18.526C21.1327 18.4496 21.0328 18.3403 20.9678 18.2103C20.9028 18.0803 20.8753 17.9348 20.8884 17.79C20.9014 17.6453 20.9545 17.507 21.0417 17.3908L23.0373 14.73L21.0417 12.0692ZM13.0594 11.5997C13.0594 11.3921 13.1418 11.1931 13.2886 11.0463C13.4354 10.8995 13.6344 10.8171 13.842 10.8171C14.0495 10.8171 14.2486 10.8995 14.3953 11.0463C14.5421 11.1931 14.6245 11.3921 14.6245 11.5997V15.5126C14.6245 15.9277 14.7894 16.3258 15.083 16.6193C15.3765 16.9128 15.7746 17.0777 16.1897 17.0777C16.6048 17.0777 17.0029 16.9128 17.2964 16.6193C17.59 16.3258 17.7549 15.9277 17.7549 15.5126V11.5997C17.7549 11.3921 17.8373 11.1931 17.9841 11.0463C18.1308 10.8995 18.3299 10.8171 18.5374 10.8171C18.745 10.8171 18.9441 10.8995 19.0908 11.0463C19.2376 11.1931 19.32 11.3921 19.32 11.5997V15.5126C19.32 16.3428 18.9902 17.139 18.4032 17.726C17.8161 18.3131 17.0199 18.6429 16.1897 18.6429C15.3595 18.6429 14.5633 18.3131 13.9762 17.726C13.3892 17.139 13.0594 16.3428 13.0594 15.5126V11.5997ZM13.842 20.2081H18.5374C18.745 20.2081 18.9441 20.2905 19.0908 20.4373C19.2376 20.584 19.32 20.7831 19.32 20.9906C19.32 21.1982 19.2376 21.3972 19.0908 21.544C18.9441 21.6908 18.745 21.7732 18.5374 21.7732H13.842C13.6344 21.7732 13.4354 21.6908 13.2886 21.544C13.1418 21.3972 13.0594 21.1982 13.0594 20.9906C13.0594 20.7831 13.1418 20.584 13.2886 20.4373C13.4354 20.2905 13.6344 20.2081 13.842 20.2081ZM13.842 26.4687H16.9723C17.1798 26.4687 17.3789 26.5511 17.5257 26.6979C17.6724 26.8447 17.7549 27.0437 17.7549 27.2513C17.7549 27.4588 17.6724 27.6579 17.5257 27.8046C17.3789 27.9514 17.1798 28.0339 16.9723 28.0339H13.842C13.6344 28.0339 13.4354 27.9514 13.2886 27.8046C13.1418 27.6579 13.0594 27.4588 13.0594 27.2513C13.0594 27.0437 13.1418 26.8447 13.2886 26.6979C13.4354 26.5511 13.6344 26.4687 13.842 26.4687Z" fill="#0C0C17"/>
    <path d="M27.9284 2.99133H12.2768C11.4466 2.99133 10.6504 3.32113 10.0633 3.90818C9.47629 4.49523 9.14648 5.29144 9.14648 6.12165H31.0587C31.0587 5.29144 30.7289 4.49523 30.1419 3.90818C29.5548 3.32113 28.7586 2.99133 27.9284 2.99133Z" fill="#0C0C17"/>
    <path d="M15.6419 35.8605H9.14648C9.14648 36.6907 9.47629 37.4869 10.0633 38.0739C10.6504 38.661 11.4466 38.9908 12.2768 38.9908H19.2574C15.5871 35.8605 15.8767 36.1187 15.6419 35.8605Z" fill="#0C0C17"/>
    <path d="M33.7265 29.2788C33.5077 29.0612 33.2294 28.9132 32.9266 28.8533C32.6239 28.7935 32.3102 28.8245 32.025 28.9424C31.7398 29.0603 31.4959 29.2599 31.3238 29.5161C31.1517 29.7723 31.0592 30.0736 31.0579 30.3822V29.5996C31.0562 29.1852 30.8902 28.7884 30.5962 28.4962C30.3774 28.2786 30.0991 28.1306 29.7963 28.0708C29.4936 28.0109 29.1799 28.0419 28.8947 28.1598C28.6095 28.2777 28.3656 28.4773 28.1935 28.7335C28.0214 28.9897 27.9289 29.291 27.9276 29.5996V28.817C27.9259 28.4026 27.7598 28.0058 27.4659 27.7136C27.247 27.496 26.9687 27.348 26.666 27.2882C26.3633 27.2283 26.0496 27.2593 25.7644 27.3772C25.4792 27.4952 25.2352 27.6947 25.0632 27.9509C24.8911 28.2071 24.7986 28.5084 24.7973 28.817C24.7973 22.9399 24.9616 22.846 24.3356 22.2355C24.1167 22.018 23.8384 21.87 23.5357 21.8101C23.2329 21.7503 22.9192 21.7812 22.6341 21.8992C22.3489 22.0171 22.1049 22.2167 21.9328 22.4729C21.7608 22.7291 21.6683 23.0304 21.667 23.339V33.5125L18.3801 32.4169C18.058 32.3257 17.7146 32.3459 17.4054 32.4742C17.0962 32.6025 16.8393 32.8314 16.6763 33.1238C16.5134 33.4162 16.4539 33.7551 16.5074 34.0855C16.561 34.416 16.7245 34.7187 16.9715 34.9447L21.667 38.9906H34.1883C34.1883 29.897 34.3683 29.9048 33.7265 29.2788Z" fill="#0C0C17"/>
</svg>
